<svg width="168" height="16" viewBox="0 0 168 16" fill="none" xmlns="http://www.w3.org/2000/svg">
<path d="M1.95119 7.464C1.26053 6.69867 0.915194 5.742 0.915194 4.594C0.915194 3.446 1.26053 2.494 1.95119 1.738C2.64186 0.972666 3.61719 0.589999 4.87719 0.589999C6.14653 0.589999 7.13586 0.977333 7.84519 1.752C8.56386 2.51733 8.92319 3.46467 8.92319 4.594C8.92319 5.72333 8.56386 6.67533 7.84519 7.45C7.13586 8.21533 6.14653 8.598 4.87719 8.598C3.61719 8.598 2.64186 8.22 1.95119 7.464ZM2.46919 2.214C1.89986 2.84867 1.61519 3.642 1.61519 4.594C1.61519 5.546 1.89986 6.33933 2.46919 6.974C3.03853 7.60867 3.84586 7.926 4.89119 7.926C5.93653 7.926 6.75319 7.60867 7.34119 6.974C7.92919 6.33 8.22319 5.53667 8.22319 4.594C8.22319 3.65133 7.92919 2.86267 7.34119 2.228C6.75319 1.584 5.93653 1.262 4.89119 1.262C3.84586 1.262 3.03853 1.57933 2.46919 2.214ZM6.51519 6.54C6.03919 6.89467 5.51653 7.072 4.94719 7.072C4.37786 7.072 3.88786 6.86667 3.47719 6.456C3.07586 6.04533 2.87519 5.448 2.87519 4.664C2.87519 3.88 3.07119 3.24533 3.46319 2.76C3.86453 2.26533 4.41986 2.018 5.12919 2.018C5.57719 2.018 5.99253 2.13933 6.37519 2.382L6.17919 3.124C5.82453 2.88133 5.44653 2.76 5.04519 2.76C4.64386 2.76 4.31253 2.93733 4.05119 3.292C3.78986 3.64667 3.65919 4.104 3.65919 4.664C3.65919 5.21467 3.78519 5.63 4.03719 5.91C4.29853 6.19 4.63453 6.33 5.04519 6.33C5.46519 6.33 5.83853 6.19933 6.16519 5.938L6.51519 6.54ZM26.6696 11.328C25.9976 11.9067 25.2136 12.196 24.3176 12.196C23.4309 12.196 22.6936 11.8973 22.1056 11.3C21.5269 10.7027 21.2376 9.83467 21.2376 8.696C21.2376 7.548 21.5269 6.61467 22.1056 5.896C22.6936 5.168 23.5056 4.804 24.5416 4.804C25.1856 4.804 25.783 4.972 26.3336 5.308L26.0676 6.162C25.5729 5.89133 25.0736 5.756 24.5696 5.756C23.8789 5.756 23.3283 6.01733 22.9176 6.54C22.5069 7.06267 22.3016 7.76267 22.3016 8.64C22.3016 9.508 22.4883 10.1613 22.8616 10.6C23.2443 11.0293 23.7296 11.244 24.3176 11.244C25.0643 11.244 25.7083 11.02 26.2496 10.572L26.6696 11.328ZM39.5257 11.174C39.0123 10.4833 38.7557 9.592 38.7557 8.5C38.7557 7.408 39.0123 6.52133 39.5257 5.84C40.039 5.14933 40.8043 4.804 41.8217 4.804C42.8483 4.804 43.623 5.14933 44.1457 5.84C44.6683 6.52133 44.9297 7.408 44.9297 8.5C44.9297 9.592 44.6683 10.4833 44.1457 11.174C43.623 11.8553 42.8483 12.196 41.8217 12.196C40.8043 12.196 40.039 11.8553 39.5257 11.174ZM40.3237 6.526C39.9877 7.03 39.8197 7.688 39.8197 8.5C39.8197 9.312 39.9877 9.97467 40.3237 10.488C40.6597 10.992 41.1637 11.244 41.8357 11.244C42.5077 11.244 43.0117 10.992 43.3477 10.488C43.693 9.97467 43.8657 9.312 43.8657 8.5C43.8657 7.688 43.693 7.03 43.3477 6.526C43.0117 6.01267 42.5077 5.756 41.8357 5.756C41.1637 5.756 40.6597 6.01267 40.3237 6.526ZM61.2819 4.804C62.0845 4.804 62.7425 5.10733 63.2559 5.714C63.7692 6.32067 64.0259 7.198 64.0259 8.346C64.0259 9.48467 63.6992 10.4133 63.0459 11.132C62.4019 11.8413 61.5805 12.196 60.5819 12.196C60.0872 12.196 59.5879 12.1073 59.0839 11.93V15.15H58.0199V6.4L57.8799 5L58.8039 4.93L59.0419 6.218C59.5645 5.27533 60.3112 4.804 61.2819 4.804ZM62.9619 8.374C62.9619 7.52467 62.7845 6.876 62.4299 6.428C62.0752 5.98 61.6225 5.756 61.0719 5.756C60.5305 5.756 60.0685 6.022 59.6859 6.554C59.3032 7.086 59.1025 7.84667 59.0839 8.836V10.852C59.5692 11.1133 60.0685 11.244 60.5819 11.244C61.2725 11.244 61.8419 10.978 62.2899 10.446C62.7379 9.90467 62.9619 9.214 62.9619 8.374ZM78.6902 15.346L77.7802 15.038L78.7322 12.364L76.0022 5H77.1502L79.2642 10.852L81.3502 5H82.4702L78.6902 15.346ZM96.0308 12H94.9668V6.4L94.8268 5L95.7508 4.93L96.0308 6.61C96.3108 6.03133 96.6654 5.59267 97.0948 5.294C97.5241 4.99533 97.9908 4.846 98.4948 4.846L98.5648 5.91C96.9221 6.04067 96.0774 7.296 96.0308 9.676V12ZM111.187 3.474C111.075 3.34333 111.019 3.18 111.019 2.984C111.019 2.788 111.075 2.62933 111.187 2.508C111.299 2.37733 111.462 2.312 111.677 2.312C111.891 2.312 112.059 2.37733 112.181 2.508C112.302 2.63867 112.363 2.79733 112.363 2.984C112.363 3.17067 112.302 3.32933 112.181 3.46C112.059 3.59067 111.891 3.656 111.677 3.656C111.462 3.656 111.299 3.59533 111.187 3.474ZM111.159 12V5H112.223V12H111.159ZM131.317 11.524C131.317 12.644 130.99 13.5587 130.337 14.268C129.693 14.9867 128.885 15.346 127.915 15.346C126.953 15.346 126.085 15.0753 125.311 14.534L125.843 13.708C126.067 13.8947 126.365 14.0487 126.739 14.17C127.112 14.2913 127.49 14.352 127.873 14.352C128.563 14.352 129.133 14.086 129.581 13.554C130.029 13.022 130.253 12.3407 130.253 11.51V10.852C129.73 11.748 128.997 12.196 128.055 12.196C127.252 12.196 126.594 11.8927 126.081 11.286C125.567 10.6793 125.311 9.80667 125.311 8.668C125.311 7.52 125.633 6.59133 126.277 5.882C126.93 5.16333 127.737 4.804 128.699 4.804C129.669 4.804 130.542 5.07467 131.317 5.616V11.524ZM126.375 8.64C126.375 9.48 126.552 10.124 126.907 10.572C127.261 11.02 127.714 11.244 128.265 11.244C128.825 11.244 129.296 10.964 129.679 10.404C130.061 9.844 130.253 9.046 130.253 8.01V6.106C129.786 5.87267 129.287 5.756 128.755 5.756C128.064 5.756 127.495 6.02667 127.047 6.568C126.599 7.1 126.375 7.79067 126.375 8.64ZM150.687 12H149.623V7.744C149.623 6.41867 149.152 5.756 148.209 5.756C147.668 5.756 147.173 6.036 146.725 6.596C146.286 7.156 146.053 7.926 146.025 8.906V12H144.961V2.2H146.025V6.358C146.305 5.854 146.655 5.47133 147.075 5.21C147.504 4.93933 147.943 4.804 148.391 4.804C149.922 4.804 150.687 5.784 150.687 7.744V12ZM163.346 5.91V5H164.41L164.746 2.9H165.474V5H167.112V5.91H165.474V10.474C165.474 10.9873 165.684 11.244 166.104 11.244C166.421 11.244 166.767 11.1087 167.14 10.838L167.532 11.552C166.991 11.9813 166.463 12.196 165.95 12.196C165.437 12.196 165.049 12.0747 164.788 11.832C164.536 11.58 164.41 11.1273 164.41 10.474V5.91H163.346Z" fill="white"/>
</svg>
